<?xml version="1.0" encoding="UTF-8"?>
<svg xmlns="http://www.w3.org/2000/svg" xmlns:xlink="http://www.w3.org/1999/xlink" width="1440pt" height="809.999993pt" viewBox="0 0 1440 809.999993" version="1.2">
<defs>
<clipPath id="clip1">
  <path d="M 155 694 L 199 694 L 199 772.039062 L 155 772.039062 Z M 155 694 "/>
</clipPath>
<clipPath id="clip2">
  <path d="M 0 683.464844 L 169 683.464844 L 169 772.039062 L 0 772.039062 Z M 0 683.464844 "/>
</clipPath>
</defs>
<g id="surface1">
<g clip-path="url(#clip1)" clip-rule="nonzero">
<path style=" stroke:none;fill-rule:nonzero;fill:rgb(77.249146%,77.648926%,80.389404%);fill-opacity:1;" d="M 167.675781 770.425781 L 168.382812 772.039062 L 198.414062 701.109375 L 180.21875 694.613281 C 180.21875 694.613281 133.652344 736.570312 167.675781 770.425781 "/>
</g>
<g clip-path="url(#clip2)" clip-rule="nonzero">
<path style=" stroke:none;fill-rule:nonzero;fill:rgb(41.569519%,42.349243%,45.489502%);fill-opacity:1;" d="M 3.433594 687.589844 C 3.433594 687.589844 -3.8125 700.050781 2.753906 716.269531 L 168.382812 772.039062 C 168.382812 772.039062 163.90625 760.117188 167.96875 749.628906 C 172.039062 739.152344 44.691406 666.894531 3.433594 687.589844 "/>
</g>
<path style=" stroke:none;fill-rule:nonzero;fill:rgb(36.859131%,38.038635%,40.388489%);fill-opacity:1;" d="M 65.289062 692.136719 C 49.660156 687.085938 34.621094 683.859375 22.203125 683.886719 C 16.742188 696.058594 20.613281 711.515625 27.609375 724.640625 L 60.265625 735.636719 C 57.199219 721.265625 59.144531 705.703125 65.289062 692.136719 "/>
<path style=" stroke:none;fill-rule:nonzero;fill:rgb(52.938843%,54.119873%,57.649231%);fill-opacity:1;" d="M 3.433594 687.589844 L 167.96875 749.628906 L 180.253906 706.957031 L 48.351562 616.050781 L 3.433594 687.589844 "/>
<path style=" stroke:none;fill-rule:nonzero;fill:rgb(48.239136%,49.409485%,52.938843%);fill-opacity:1;" d="M 180.253906 706.957031 L 48.351562 616.050781 L 12.867188 672.566406 L 110.070312 727.796875 L 167.96875 749.628906 L 180.253906 706.957031 "/>
<path style=" stroke:none;fill-rule:nonzero;fill:rgb(43.919373%,45.098877%,48.239136%);fill-opacity:1;" d="M 180.253906 706.957031 L 48.351562 616.050781 L 13.253906 671.953125 L 171.621094 736.972656 L 180.253906 706.957031 "/>
<path style=" stroke:none;fill-rule:nonzero;fill:rgb(63.919067%,73.728943%,88.238525%);fill-opacity:1;" d="M 210.160156 747.980469 L 262.375 647.914062 C 262.375 647.914062 178.585938 634.753906 210.160156 747.980469 "/>
<path style=" stroke:none;fill-rule:nonzero;fill:rgb(28.62854%,49.798584%,75.689697%);fill-opacity:1;" d="M 10.976562 637.832031 C 10.976562 637.832031 5.980469 659.296875 18.382812 672.132812 L 210.160156 747.980469 C 210.160156 747.980469 210.042969 701.800781 214.417969 688.792969 C 218.804688 675.785156 44.101562 617.933594 10.976562 637.832031 "/>
<path style=" stroke:none;fill-rule:nonzero;fill:rgb(24.308777%,45.878601%,70.979309%);fill-opacity:1;" d="M 48.859375 634.574219 C 43.105469 634 37.714844 633.695312 32.847656 633.710938 C 29.941406 649.742188 33.394531 666.714844 40.953125 681.058594 L 48.90625 684.207031 C 43.238281 667.792969 42.253906 649.277344 48.859375 634.574219 "/>
<path style=" stroke:none;fill-rule:nonzero;fill:rgb(24.308777%,45.878601%,70.979309%);fill-opacity:1;" d="M 70.382812 637.625 C 66.265625 636.898438 62.25 636.261719 58.355469 635.722656 C 52.628906 652.183594 52.878906 672.492188 59.910156 688.558594 L 72.585938 693.574219 C 66.542969 676.351562 66.722656 655.898438 70.382812 637.625 "/>
<path style=" stroke:none;fill-rule:nonzero;fill:rgb(24.308777%,45.878601%,70.979309%);fill-opacity:1;" d="M 214.417969 688.792969 C 215.242188 686.335938 209.703125 682.289062 199.945312 677.472656 C 195.078125 698.21875 192.136719 720.648438 194.78125 741.898438 L 210.160156 747.980469 C 210.160156 747.980469 210.042969 701.800781 214.417969 688.792969 "/>
<path style=" stroke:none;fill-rule:nonzero;fill:rgb(38.819885%,54.899597%,76.858521%);fill-opacity:1;" d="M 58.152344 588.625 L 10.976562 637.832031 L 211.59375 718.449219 L 247.632812 654.890625 C 247.632812 654.890625 190.808594 481.042969 58.152344 588.625 "/>
<path style=" stroke:none;fill-rule:nonzero;fill:rgb(34.118652%,50.979614%,72.938538%);fill-opacity:1;" d="M 227.71875 690.011719 L 247.632812 654.890625 C 247.632812 654.890625 190.808594 481.042969 58.152344 588.625 L 43.03125 604.398438 L 96.699219 672.277344 L 157.558594 696.730469 C 180.980469 690.8125 204.277344 689.3125 227.71875 690.011719 "/>
<path style=" stroke:none;fill-rule:nonzero;fill:rgb(43.139648%,58.81958%,79.998779%);fill-opacity:1;" d="M 10.976562 637.832031 L 65.65625 659.800781 C 58.644531 641.535156 51.425781 623.683594 40.664062 606.855469 L 10.976562 637.832031 "/>
<path style=" stroke:none;fill-rule:nonzero;fill:rgb(12.159729%,58.428955%,85.488892%);fill-opacity:1;" d="M 125.824219 698.945312 C 125.824219 698.945312 268.175781 665.101562 288.550781 673.460938 C 288.550781 673.460938 279.601562 652.46875 265.726562 629.917969 C 263.082031 625.613281 270.320312 611.832031 267.34375 607.554688 C 253.183594 587.164062 225.554688 577.941406 207.566406 575.582031 C 166.023438 570.136719 71.84375 600.414062 125.824219 698.945312 "/>
<path style=" stroke:none;fill-rule:nonzero;fill:rgb(27.059937%,68.629456%,90.589905%);fill-opacity:1;" d="M 12.652344 535.960938 C 12.652344 535.960938 15.996094 561.777344 24.605469 574.039062 L 125.824219 698.945312 C 125.824219 698.945312 112.824219 679.632812 126.496094 666.222656 C 140.164062 652.8125 63.828125 524.648438 12.652344 535.960938 "/>
<path style=" stroke:none;fill-rule:nonzero;fill:rgb(21.958923%,64.709473%,88.62915%);fill-opacity:1;" d="M 47.425781 545.136719 C 43.757812 542.777344 40.089844 540.777344 36.460938 539.214844 C 30.328125 555.058594 31.117188 573.324219 37.132812 589.503906 L 52.996094 609.078125 C 45.003906 588.394531 41.023438 566.121094 47.425781 545.136719 "/>
<path style=" stroke:none;fill-rule:nonzero;fill:rgb(40.779114%,74.899292%,91.758728%);fill-opacity:1;" d="M 151.828125 478.152344 C 151.828125 478.152344 71.898438 491.234375 12.652344 535.960938 C 12.652344 535.960938 104.949219 625.316406 126.496094 666.222656 C 126.496094 666.222656 250.636719 647.140625 268.832031 592.25 L 151.828125 478.152344 "/>
<path style=" stroke:none;fill-rule:nonzero;fill:rgb(36.079407%,70.588684%,88.62915%);fill-opacity:1;" d="M 268.070312 591.507812 L 151.828125 478.152344 C 151.828125 478.152344 135.285156 480.863281 111.683594 488.019531 C 145.695312 525.519531 161.476562 575.746094 170.238281 624.652344 C 202.4375 613.671875 235.832031 603.804688 268.070312 591.507812 "/>
<path style=" stroke:none;fill-rule:nonzero;fill:rgb(30.979919%,65.879822%,85.879517%);fill-opacity:1;" d="M 262.597656 586.175781 L 151.828125 478.152344 C 151.828125 478.152344 144.277344 479.390625 132.109375 482.398438 C 164.847656 513.28125 187.859375 554 200.527344 598.339844 C 220.882812 593.75 238.523438 596.546875 262.597656 586.175781 "/>
<path style=" stroke:none;fill-rule:nonzero;fill:rgb(83.918762%,90.979004%,94.509888%);fill-opacity:1;" d="M 267.609375 609.160156 C 267.609375 609.160156 237.285156 653.988281 130.800781 672.347656 C 130.800781 672.347656 134.78125 685.042969 131.519531 690.011719 C 131.519531 690.011719 262.859375 658.128906 282.972656 663.710938 L 277.304688 653.042969 L 282.425781 647.902344 L 275.089844 639.257812 C 275.089844 639.257812 277.234375 622.257812 267.609375 609.160156 "/>
<path style=" stroke:none;fill-rule:nonzero;fill:rgb(72.549438%,85.879517%,84.709167%);fill-opacity:1;" d="M 240.789062 592.898438 L 312.875 553.390625 C 312.875 553.390625 339.984375 543.960938 307.578125 525.339844 C 275.171875 506.707031 237.832031 551.308594 240.789062 592.898438 "/>
<path style=" stroke:none;fill-rule:nonzero;fill:rgb(52.938843%,79.219055%,72.549438%);fill-opacity:1;" d="M 243.964844 564.753906 L 364.300781 527.894531 L 263.71875 352.464844 L 116.230469 389.003906 C 116.230469 389.003906 214.085938 547.710938 243.964844 564.753906 "/>
<path style=" stroke:none;fill-rule:nonzero;fill:rgb(48.239136%,75.689697%,69.018555%);fill-opacity:1;" d="M 263.71875 352.464844 L 190.128906 370.695312 C 168.375 383.460938 149.121094 400.65625 137.632812 422.902344 C 168.183594 470.511719 222.929688 552.753906 243.964844 564.753906 L 364.300781 527.894531 L 263.71875 352.464844 "/>
<path style=" stroke:none;fill-rule:nonzero;fill:rgb(43.139648%,71.759033%,64.309692%);fill-opacity:1;" d="M 263.71875 352.464844 L 211.792969 365.332031 C 197.855469 378.660156 185.132812 393.21875 174.253906 409.546875 C 189.839844 466.597656 226.039062 512.636719 261.199219 559.472656 L 364.300781 527.894531 L 263.71875 352.464844 "/>
<path style=" stroke:none;fill-rule:nonzero;fill:rgb(41.178894%,73.329163%,64.709473%);fill-opacity:1;" d="M 116.230469 389.003906 L 243.964844 564.753906 C 243.964844 564.753906 245.660156 580.957031 240.789062 592.898438 L 107.398438 430.359375 C 107.398438 430.359375 99.128906 410.820312 116.230469 389.003906 "/>
<path style=" stroke:none;fill-rule:nonzero;fill:rgb(36.079407%,69.018555%,59.999084%);fill-opacity:1;" d="M 201.445312 526.890625 C 198.851562 531.679688 199.5625 539.207031 204.359375 541.800781 C 205.855469 541.65625 210.507812 542.742188 211.738281 539.585938 C 213.90625 533.988281 212.320312 528.21875 208.484375 524.640625 C 205.210938 523.824219 202.042969 524.289062 201.445312 526.890625 "/>
<path style=" stroke:none;fill-rule:nonzero;fill:rgb(42.749023%,76.078796%,19.60907%);fill-opacity:1;" d="M 315.144531 640.179688 C 315.144531 640.179688 436.425781 586.726562 489.777344 596.835938 C 489.777344 596.835938 444.511719 503.351562 437.851562 499.996094 C 431.179688 496.652344 268.804688 518.1875 315.144531 640.179688 "/>
<path style=" stroke:none;fill-rule:nonzero;fill:rgb(53.329468%,79.60968%,45.489502%);fill-opacity:1;" d="M 195.597656 389.183594 C 195.597656 389.183594 188.488281 406.53125 194.484375 428.222656 L 315.144531 640.179688 C 315.144531 640.179688 314.070312 611.679688 320.472656 595.191406 C 326.875 578.707031 230.875 409.726562 195.597656 389.183594 "/>
<path style=" stroke:none;fill-rule:nonzero;fill:rgb(43.528748%,72.158813%,36.468506%);fill-opacity:1;" d="M 224.328125 418.957031 C 213.59375 428.949219 210.484375 445.554688 212.914062 460.589844 L 289.203125 594.617188 C 288.082031 575.878906 290.28125 557.410156 301.140625 543.621094 C 281.214844 504.328125 249.785156 452.023438 224.328125 418.957031 "/>
<path style=" stroke:none;fill-rule:nonzero;fill:rgb(61.569214%,83.139038%,55.288696%);fill-opacity:1;" d="M 257.425781 379.433594 L 195.597656 389.183594 L 318.140625 604.144531 L 423.683594 560.917969 C 423.683594 560.917969 338.386719 353.589844 257.425781 379.433594 "/>
<path style=" stroke:none;fill-rule:nonzero;fill:rgb(56.469727%,78.819275%,50.979614%);fill-opacity:1;" d="M 257.425781 379.433594 L 224.148438 384.679688 C 252.449219 454.917969 295.578125 512.4375 337.976562 574.847656 C 342.152344 580.285156 346.644531 585.496094 351.34375 590.546875 L 423.683594 560.917969 C 423.683594 560.917969 338.386719 353.589844 257.425781 379.433594 "/>
<path style=" stroke:none;fill-rule:nonzero;fill:rgb(51.759338%,74.899292%,46.669006%);fill-opacity:1;" d="M 257.425781 379.433594 L 228.363281 384.015625 L 354.347656 589.316406 L 423.683594 560.917969 C 423.683594 560.917969 338.386719 353.589844 257.425781 379.433594 "/>
<path style=" stroke:none;fill-rule:nonzero;fill:rgb(87.059021%,92.158508%,80.778503%);fill-opacity:1;" d="M 465.980469 554.566406 L 324.804688 607.5 C 324.804688 607.5 332.988281 618.640625 321.492188 631.640625 C 321.492188 631.640625 433.816406 575.851562 494.1875 584.5 L 487.714844 574.785156 L 494.582031 571.753906 L 476.164062 536.140625 C 476.164062 536.140625 472.078125 534.929688 465.980469 554.566406 "/>
<path style=" stroke:none;fill-rule:nonzero;fill:rgb(81.568909%,88.238525%,77.249146%);fill-opacity:1;" d="M 466.992188 578.003906 C 469.1875 577.925781 471.386719 577.84375 473.582031 577.84375 C 471.386719 576.742188 469.1875 577.214844 466.992188 578.003906 "/>
<path style=" stroke:none;fill-rule:nonzero;fill:rgb(76.469421%,84.709167%,73.329163%);fill-opacity:1;" d="M 494.582031 571.753906 L 476.164062 536.140625 C 476.164062 536.140625 472.078125 534.929688 465.980469 554.566406 L 350.1875 597.972656 C 392.863281 587.585938 435.535156 571.707031 478.210938 563.949219 C 452.753906 568.578125 427.304688 580.160156 404.160156 591.730469 C 425.109375 583.351562 446.046875 578.804688 466.992188 578.003906 C 464.5625 578.882812 462.132812 580.160156 459.703125 580.160156 C 470.230469 580.160156 480.765625 580.160156 491.292969 580.160156 L 487.714844 574.785156 L 494.582031 571.753906 "/>
<path style=" stroke:none;fill-rule:nonzero;fill:rgb(96.859741%,93.328857%,81.568909%);fill-opacity:1;" d="M 357.917969 577.386719 L 485.75 552.832031 C 485.75 552.832031 522.8125 545.164062 483.636719 515.238281 C 444.457031 485.3125 361.183594 522.488281 357.917969 577.386719 "/>
<path style=" stroke:none;fill-rule:nonzero;fill:rgb(91.758728%,78.819275%,46.669006%);fill-opacity:1;" d="M 393.679688 555.847656 L 488.488281 537.179688 L 387.078125 290.515625 L 256.824219 304.097656 C 256.824219 304.097656 357.542969 528.425781 393.679688 555.847656 "/>
<path style=" stroke:none;fill-rule:nonzero;fill:rgb(81.568909%,70.199585%,38.038635%);fill-opacity:1;" d="M 488.488281 537.179688 L 387.078125 290.515625 L 329.539062 296.515625 C 348.90625 384.25 373.609375 470.914062 408.527344 552.921875 L 488.488281 537.179688 "/>
<path style=" stroke:none;fill-rule:nonzero;fill:rgb(95.689392%,83.529663%,50.979614%);fill-opacity:1;" d="M 256.824219 304.097656 C 256.824219 304.097656 268.875 330.929688 286.128906 367.167969 C 299.542969 342.382812 314.625 318.523438 332.046875 296.246094 L 256.824219 304.097656 "/>
<path style=" stroke:none;fill-rule:nonzero;fill:rgb(94.509888%,76.469421%,28.62854%);fill-opacity:1;" d="M 256.824219 304.097656 L 393.679688 555.847656 C 393.679688 555.847656 366.339844 562.601562 357.917969 577.386719 L 211.386719 341.933594 C 211.386719 341.933594 218.113281 309.113281 256.824219 304.097656 "/>
<path style=" stroke:none;fill-rule:nonzero;fill:rgb(85.099792%,68.238831%,20.388794%);fill-opacity:1;" d="M 330.308594 533.019531 L 335.941406 542.070312 C 343.246094 527.878906 356.535156 518.476562 371.511719 515.058594 L 367.179688 507.082031 C 352.484375 511.578125 339.058594 519.902344 330.308594 533.019531 "/>
<path style=" stroke:none;fill-rule:nonzero;fill:rgb(85.099792%,68.238831%,20.388794%);fill-opacity:1;" d="M 318.148438 513.480469 L 325.851562 525.859375 C 334.59375 513.308594 348.878906 504.4375 364.105469 501.441406 L 355.046875 484.78125 C 339.867188 489.878906 326.703125 500.097656 318.148438 513.480469 "/>
<path style=" stroke:none;fill-rule:nonzero;fill:rgb(96.469116%,85.879517%,37.649536%);fill-opacity:1;" d="M 327.671875 428.652344 C 289.886719 359.132812 258.160156 303.363281 256.816406 304.097656 C 255.480469 304.824219 285.035156 361.769531 322.828125 431.292969 C 360.617188 500.8125 392.34375 556.574219 393.679688 555.847656 C 395.023438 555.113281 365.476562 498.167969 327.671875 428.652344 "/>
<path style=" stroke:none;fill-rule:nonzero;fill:rgb(96.469116%,56.858826%,46.669006%);fill-opacity:1;" d="M 376.175781 218.742188 L 555.441406 235.570312 L 575.261719 537.457031 L 524.328125 546.417969 C 524.328125 546.417969 358.816406 287.554688 376.175781 218.742188 "/>
<path style=" stroke:none;fill-rule:nonzero;fill:rgb(92.939758%,52.938843%,42.749023%);fill-opacity:1;" d="M 501.757812 230.527344 C 477.359375 257.503906 452.421875 281.148438 434.128906 314.789062 C 427.394531 326.890625 420.804688 338.824219 414.492188 350.707031 C 458.761719 443.878906 524.328125 546.417969 524.328125 546.417969 L 575.261719 537.457031 L 555.441406 235.570312 L 501.757812 230.527344 "/>
<path style=" stroke:none;fill-rule:nonzero;fill:rgb(83.529663%,45.098877%,34.509277%);fill-opacity:1;" d="M 555.441406 233.257812 L 501.757812 228.214844 C 497.6875 232.726562 493.589844 237.132812 489.519531 241.519531 C 497.03125 342.777344 511.34375 445.140625 546.503906 540.203125 L 575.261719 535.144531 L 555.441406 233.257812 "/>
<path style=" stroke:none;fill-rule:nonzero;fill:rgb(95.689392%,83.529663%,79.998779%);fill-opacity:1;" d="M 491.335938 567.707031 L 589.914062 544.492188 L 592.511719 527.445312 L 538.550781 533.898438 C 538.550781 533.898438 478.992188 525.472656 491.335938 567.707031 "/>
<path style=" stroke:none;fill-rule:nonzero;fill:rgb(89.019775%,74.508667%,71.369934%);fill-opacity:1;" d="M 592.511719 527.445312 L 538.550781 533.898438 C 538.550781 533.898438 520.382812 531.339844 506.195312 536.15625 C 520.777344 537.40625 535.367188 540.804688 549.945312 540.804688 C 538.378906 545.433594 529.117188 547.746094 517.546875 550.0625 C 526.800781 550.0625 536.054688 545.433594 545.320312 547.746094 C 536.054688 550.0625 526.800781 554.691406 517.546875 554.691406 C 526.800781 557.003906 536.054688 552.375 545.320312 552.375 C 544.027344 553.667969 542.65625 554.835938 541.257812 555.945312 L 589.914062 544.492188 L 592.511719 527.445312 "/>
<path style=" stroke:none;fill-rule:nonzero;fill:rgb(86.268616%,16.859436%,32.548523%);fill-opacity:1;" d="M 556.054688 571.457031 C 556.054688 571.457031 730.425781 550.941406 761.71875 556.414062 C 761.71875 556.414062 773.234375 543.753906 786.566406 534.355469 C 787.671875 533.574219 801.121094 534.5625 802.25 533.835938 C 806.125 531.339844 804.511719 532.433594 808.332031 531.054688 C 796.277344 506.992188 565.046875 488.03125 556.054688 571.457031 "/>
<path style=" stroke:none;fill-rule:nonzero;fill:rgb(94.898987%,87.838745%,90.979004%);fill-opacity:1;" d="M 802.214844 533.609375 L 630.863281 533.554688 C 630.882812 533.746094 630.890625 533.925781 630.917969 534.121094 L 575.65625 561.6875 C 575.65625 561.6875 747.570312 544.671875 771.546875 551.757812 L 774.902344 547.710938 L 784.414062 549.621094 C 788.773438 546.410156 798.773438 543.621094 798.773438 543.621094 L 802.796875 536.703125 L 802.214844 533.609375 "/>
<path style=" stroke:none;fill-rule:nonzero;fill:rgb(87.838745%,78.039551%,81.568909%);fill-opacity:1;" d="M 802.214844 533.609375 L 641.992188 533.554688 C 687.140625 538.972656 730.53125 537.089844 775.941406 539.261719 C 750.492188 546.203125 722.722656 539.261719 697.265625 541.574219 C 720.023438 545.046875 743.167969 546.589844 769 546.203125 C 760.699219 547.234375 752.402344 548.546875 744.125 550.054688 C 757.128906 549.945312 767.011719 550.421875 771.546875 551.757812 L 774.902344 547.710938 L 784.414062 549.621094 C 788.773438 546.410156 798.773438 543.621094 798.773438 543.621094 L 802.796875 536.703125 L 802.214844 533.609375 "/>
<path style=" stroke:none;fill-rule:nonzero;fill:rgb(89.019775%,29.798889%,43.528748%);fill-opacity:1;" d="M 630.351562 528.109375 L 808.332031 531.054688 L 785.484375 181.855469 C 785.484375 181.855469 617.726562 113.5625 538.90625 133.539062 C 510.394531 292.507812 601.613281 520.0625 630.351562 528.109375 "/>
<path style=" stroke:none;fill-rule:nonzero;fill:rgb(84.309387%,25.878906%,39.219666%);fill-opacity:1;" d="M 596.699219 210.667969 C 594.699219 227.785156 597.347656 245.105469 600.351562 261.988281 C 602.941406 277.875 606.035156 293.144531 609.78125 309.480469 C 628.800781 388.894531 651.28125 462.5 702.726562 529.3125 L 808.332031 531.054688 L 799.390625 241.707031 C 736.960938 230.988281 659.515625 205.027344 596.699219 210.667969 "/>
<path style=" stroke:none;fill-rule:nonzero;fill:rgb(79.998779%,21.958923%,35.289001%);fill-opacity:1;" d="M 659.855469 450.515625 C 672.875 479.707031 681.914062 502.277344 702.726562 529.3125 L 808.332031 531.054688 L 795.613281 336.707031 C 743.542969 366.148438 702.421875 407.96875 659.855469 450.515625 "/>
<path style=" stroke:none;fill-rule:nonzero;fill:rgb(83.139038%,45.489502%,75.689697%);fill-opacity:1;" d="M 927.347656 172.792969 C 910.921875 161.734375 873.835938 109.203125 873.835938 109.203125 C 862.1875 89.304688 777.933594 235.757812 749.050781 286.046875 C 720.167969 336.335938 702.921875 496.128906 736.074219 491.628906 C 756.90625 488.800781 816.6875 459.683594 858.269531 438.421875 C 870.09375 356.898438 887.929688 275.113281 924.191406 202.046875 L 927.347656 172.792969 "/>
<path style=" stroke:none;fill-rule:nonzero;fill:rgb(78.42865%,41.569519%,73.329163%);fill-opacity:1;" d="M 927.347656 172.792969 C 919.988281 167.832031 908.484375 154.558594 898.019531 141.40625 C 886.34375 164.191406 876.597656 187.992188 868.015625 212.5 C 849.273438 267.621094 841.195312 323.96875 828.765625 381.269531 C 822.9375 407.996094 817.226562 434.566406 812.445312 461.171875 C 828.335938 453.566406 844.324219 445.554688 858.269531 438.421875 C 870.09375 356.890625 887.929688 275.113281 924.191406 202.046875 L 927.347656 172.792969 "/>
<path style=" stroke:none;fill-rule:nonzero;fill:rgb(73.728943%,37.249756%,70.979309%);fill-opacity:1;" d="M 884.558594 170.011719 C 884.378906 170.417969 884.21875 170.820312 884.039062 171.214844 C 860.949219 236.40625 860.699219 305.273438 869.101562 374.113281 C 880.273438 316.996094 896.0625 260.929688 920.804688 209.042969 C 907.882812 196.710938 897.085938 182.035156 884.558594 170.011719 "/>
<path style=" stroke:none;fill-rule:nonzero;fill:rgb(65.879822%,45.878601%,75.689697%);fill-opacity:1;" d="M 1002.699219 634.65625 C 1002.699219 634.65625 1069.40625 480.046875 1096.289062 438.332031 C 1123.171875 396.628906 1017.609375 105.558594 915.648438 182.285156 C 813.683594 259.011719 971.753906 617.953125 1002.699219 634.65625 "/>
<path style=" stroke:none;fill-rule:nonzero;fill:rgb(61.178589%,41.958618%,73.728943%);fill-opacity:1;" d="M 968.527344 172.398438 C 976.980469 237.695312 1003.53125 536.667969 1025.476562 583.628906 C 1040.765625 551.210938 1086.441406 453.609375 1096.289062 438.332031 C 1118.488281 403.886719 1050.359375 199.367188 968.527344 172.398438 "/>
<path style=" stroke:none;fill-rule:nonzero;fill:rgb(56.858826%,38.038635%,71.369934%);fill-opacity:1;" d="M 1096.289062 438.332031 C 1118.070312 404.539062 1052.90625 207.070312 973.152344 174.140625 C 979.195312 268.796875 1026.632812 371.816406 1066.175781 497.78125 C 1079.511719 470.089844 1091.734375 445.402344 1096.289062 438.332031 "/>
<path style=" stroke:none;fill-rule:nonzero;fill:rgb(47.44873%,39.99939%,72.938538%);fill-opacity:1;" d="M 929.234375 118.019531 C 929.234375 118.019531 922.15625 64.796875 1220.445312 15.199219 L 1238.726562 61.074219 C 1238.726562 61.074219 955.785156 170.128906 929.234375 118.019531 "/>
<path style=" stroke:none;fill-rule:nonzero;fill:rgb(93.328857%,93.328857%,95.689392%);fill-opacity:1;" d="M 943.363281 104.574219 C 943.363281 104.574219 948.71875 62.070312 1260.636719 16.105469 C 1260.636719 16.105469 1395.589844 12.8125 1296.746094 63.121094 C 1197.910156 113.417969 961.46875 148.601562 943.363281 104.574219 "/>
<path style=" stroke:none;fill-rule:nonzero;fill:rgb(47.44873%,39.99939%,72.938538%);fill-opacity:1;" d="M 993.679688 84.003906 C 993.679688 84.003906 942.761719 83.160156 929.234375 118.019531 C 929.234375 118.019531 1080.875 527.957031 1224.230469 654.523438 C 1224.230469 654.523438 1232.847656 666.789062 1282.847656 642.96875 C 1229.644531 502.851562 993.679688 84.003906 993.679688 84.003906 "/>
<path style=" stroke:none;fill-rule:nonzero;fill:rgb(42.749023%,36.468506%,70.588684%);fill-opacity:1;" d="M 1042.261719 275.417969 C 1034.972656 272.234375 1018.3125 277.402344 1013.421875 279.679688 C 1024.230469 307.210938 1081.367188 431.074219 1142.449219 528.523438 C 1152.679688 523.832031 1158.375 521.042969 1167.78125 514.949219 C 1144.648438 482.925781 1064.6875 326.667969 1042.261719 275.417969 "/>
<path style=" stroke:none;fill-rule:nonzero;fill:rgb(52.938843%,46.669006%,76.469421%);fill-opacity:1;" d="M 993.679688 84.003906 C 993.679688 84.003906 1137.949219 469.902344 1282.847656 642.96875 C 1282.847656 642.96875 1392.296875 436.78125 1439.992188 408.046875 C 1439.992188 408.046875 1294.253906 106.277344 1349.355469 17.136719 C 1349.355469 17.136719 1177.996094 20.105469 993.679688 84.003906 "/>
<path style=" stroke:none;fill-rule:nonzero;fill:rgb(55.688477%,53.729248%,79.998779%);fill-opacity:1;" d="M 1282.847656 642.980469 C 1282.128906 643.652344 1257.792969 617.601562 1225.808594 569.996094 C 1193.625 522.566406 1154.1875 453.789062 1115.773438 375.359375 C 1038.953125 218.390625 991.667969 84.667969 993.679688 84.003906 C 995.957031 83.078125 1046.609375 215.226562 1123.214844 371.707031 C 1161.511719 449.90625 1199.945312 518.789062 1230.695312 566.78125 C 1261.253906 614.9375 1283.851562 642.144531 1282.847656 642.980469 "/>
<path style=" stroke:none;fill-rule:nonzero;fill:rgb(58.81958%,51.759338%,78.819275%);fill-opacity:1;" d="M 1342.863281 20.789062 C 1342.863281 20.789062 1294.898438 21.613281 1222.445312 31.859375 C 1260.5625 29.292969 1298.824219 29.894531 1336.59375 34.109375 C 1338.296875 29.273438 1340.371094 24.804688 1342.863281 20.789062 "/>
<path style=" stroke:none;fill-rule:nonzero;fill:rgb(55.688477%,49.01886%,77.648926%);fill-opacity:1;" d="M 1212.804688 432.402344 C 1149.335938 337.503906 1090.296875 244.988281 1061.476562 131.441406 C 1056.886719 112.816406 1058.777344 94.238281 1068.902344 80.378906 C 1049.945312 85.734375 1030.621094 91.746094 1011.136719 98.507812 C 1011.136719 98.507812 1144.207031 454.445312 1277.851562 614.085938 C 1277.851562 614.085938 1304.367188 564.144531 1336.128906 511.882812 C 1287.535156 511.640625 1239.8125 471.523438 1212.804688 432.402344 "/>
<path style=" stroke:none;fill-rule:nonzero;fill:rgb(48.239136%,42.749023%,74.119568%);fill-opacity:1;" d="M 1099.613281 84.53125 C 1217.621094 53.574219 1294.136719 149.175781 1368.328125 228.960938 C 1346.761719 162.488281 1330.792969 92.03125 1339.195312 45.519531 C 1258.894531 30.84375 1176.121094 57.972656 1099.613281 84.53125 "/>
<path style=" stroke:none;fill-rule:nonzero;fill:rgb(43.919373%,38.819885%,71.759033%);fill-opacity:1;" d="M 1337.050781 81.339844 C 1336.917969 77.175781 1336.882812 73.105469 1336.960938 69.148438 C 1305.175781 57.773438 1271.25 53.296875 1236.640625 56.535156 C 1271.90625 58.429688 1306.367188 63.757812 1337.050781 81.339844 "/>
<path style=" stroke:none;fill-rule:nonzero;fill:rgb(61.178589%,38.42926%,71.759033%);fill-opacity:1;" d="M 948.289062 172.230469 C 948.289062 172.230469 925.144531 149.203125 877.421875 177.460938 C 877.421875 177.460938 881.304688 413.65625 914.679688 591.101562 C 914.679688 591.101562 927.671875 640.277344 1002.699219 634.65625 C 1002.699219 634.65625 950.160156 312.035156 948.289062 172.230469 "/>
<path style=" stroke:none;fill-rule:nonzero;fill:rgb(63.919067%,40.779114%,73.329163%);fill-opacity:1;" d="M 950.59375 224.089844 C 950.199219 218.25 949.847656 212.550781 949.550781 207.027344 C 925.679688 205.671875 901.515625 209.171875 878.523438 216.4375 C 878.695312 221.40625 878.902344 226.796875 879.132812 232.546875 C 902.070312 225.101562 926.613281 224.457031 950.59375 224.089844 "/>
<path style=" stroke:none;fill-rule:nonzero;fill:rgb(63.919067%,40.779114%,73.329163%);fill-opacity:1;" d="M 955.488281 282.613281 C 954.25 269.800781 953.136719 257.316406 952.171875 245.292969 C 927.816406 242.703125 903.003906 245.914062 880.085938 254.660156 C 880.585938 265.503906 881.179688 277.25 881.867188 289.707031 C 905.917969 283.222656 931.105469 279.203125 955.488281 282.613281 "/>
<path style=" stroke:none;fill-rule:nonzero;fill:rgb(63.919067%,40.779114%,73.329163%);fill-opacity:1;" d="M 939.160156 576.320312 C 941.085938 580.695312 950.679688 585.871094 953.121094 579.566406 C 960.894531 562.117188 952.339844 546.914062 944.082031 531.914062 C 942.738281 532.203125 941.292969 532.777344 939.734375 533.753906 C 926.75 541.039062 933.375 563.195312 939.160156 576.320312 "/>
<path style=" stroke:none;fill-rule:nonzero;fill:rgb(79.998779%,34.899902%,70.199585%);fill-opacity:1;" d="M 871.511719 108.664062 C 871.511719 108.664062 776.757812 292.5 733.75 491.082031 C 733.75 491.082031 670.257812 470.429688 659.855469 449 C 659.855469 449 737.949219 206.542969 815.21875 90.140625 C 815.21875 90.140625 847.460938 75.921875 871.511719 108.664062 "/>
<path style=" stroke:none;fill-rule:nonzero;fill:rgb(83.139038%,37.649536%,71.759033%);fill-opacity:1;" d="M 796.65625 172.085938 C 761.890625 222.410156 739.589844 276.117188 728.523438 336.375 C 727.4375 341.027344 729.511719 346.90625 735.382812 344.851562 C 742.773438 342.636719 748.222656 336.050781 752.035156 328.101562 C 773.207031 276.621094 787.195312 223.792969 807.476562 173.296875 C 804.097656 169.539062 799.335938 167.996094 796.65625 172.085938 "/>
<path style=" stroke:none;fill-rule:nonzero;fill:rgb(86.268616%,16.859436%,32.548523%);fill-opacity:1;" d="M 538.90625 133.539062 C 538.90625 133.539062 578.023438 432.222656 630.351562 528.109375 C 630.351562 528.109375 583.582031 536.6875 556.054688 571.457031 C 556.054688 571.457031 498.136719 266.125 494.082031 162.925781 C 510.554688 144.582031 524.167969 140.519531 538.90625 133.539062 "/>
<path style=" stroke:none;fill-rule:nonzero;fill:rgb(77.648926%,13.729858%,24.308777%);fill-opacity:1;" d="M 497.113281 202.53125 C 497.6875 208.175781 498.332031 214.058594 499.03125 220.140625 C 510.929688 203.167969 527.007812 187.613281 545.703125 180.832031 C 545.140625 177.074219 544.601562 173.496094 544.101562 170.121094 C 525.007812 174.203125 509.171875 186.90625 497.113281 202.53125 "/>
<path style=" stroke:none;fill-rule:nonzero;fill:rgb(77.648926%,13.729858%,24.308777%);fill-opacity:1;" d="M 541.8125 493.699219 C 543.390625 502.507812 544.878906 510.789062 546.261719 518.421875 C 561.503906 498.273438 584.828125 483.914062 609.691406 478.675781 C 606.554688 469.441406 603.488281 459.636719 600.503906 449.402344 C 575.769531 455.386719 555.34375 472.152344 541.8125 493.699219 "/>
<path style=" stroke:none;fill-rule:nonzero;fill:rgb(69.40918%,13.328552%,17.649841%);fill-opacity:1;" d="M 544.753906 510.0625 C 545.265625 512.914062 545.777344 515.722656 546.261719 518.421875 C 561.503906 498.273438 584.828125 483.914062 609.691406 478.675781 C 609.136719 477.050781 608.589844 475.390625 608.042969 473.730469 C 581.589844 475.355469 560.160156 490.074219 544.753906 510.0625 "/>
<path style=" stroke:none;fill-rule:nonzero;fill:rgb(94.119263%,48.239136%,34.509277%);fill-opacity:1;" d="M 376.175781 218.742188 L 538.550781 533.898438 C 538.550781 533.898438 509.808594 540.777344 491.335938 567.707031 C 442.851562 498.050781 323.1875 265.695312 323.1875 265.695312 C 323.1875 265.695312 317.566406 235.425781 376.175781 218.742188 "/>
<path style=" stroke:none;fill-rule:nonzero;fill:rgb(91.369629%,44.309998%,30.589294%);fill-opacity:1;" d="M 430.917969 375.835938 L 376.523438 274.046875 C 367.609375 279.992188 363.441406 290.058594 362.097656 301.207031 L 416.921875 400.21875 C 419.046875 390.808594 423.753906 382.140625 430.917969 375.835938 "/>
<path style=" stroke:none;fill-rule:nonzero;fill:rgb(91.369629%,44.309998%,30.589294%);fill-opacity:1;" d="M 478.925781 465.683594 C 472.308594 470.492188 466.722656 476.851562 463.289062 483.984375 L 470.265625 496.597656 C 473.976562 490.03125 479.859375 484.226562 486.476562 479.820312 L 478.925781 465.683594 "/>
<path style=" stroke:none;fill-rule:nonzero;fill:rgb(75.289917%,50.588989%,78.039551%);fill-opacity:1;" d="M 972.09375 403.769531 C 954.769531 276.28125 948.707031 172.265625 948.289062 172.230469 C 945.660156 172.230469 949.273438 276.871094 966.625 404.46875 C 983.035156 532.140625 1001.253906 634.898438 1002.699219 634.65625 C 1004.269531 634.402344 988.496094 531.3125 972.09375 403.769531 "/>
<path style=" stroke:none;fill-rule:nonzero;fill:rgb(91.369629%,46.269226%,75.689697%);fill-opacity:1;" d="M 871.511719 108.664062 C 870.09375 107.855469 827.402344 188.933594 788.835938 294.910156 C 749.5625 400.710938 732.199219 490.882812 733.75 491.082031 C 735.203125 491.4375 754.886719 402.226562 794.019531 296.8125 C 832.460938 191.175781 872.804688 109.273438 871.511719 108.664062 "/>
<path style=" stroke:none;fill-rule:nonzero;fill:rgb(93.328857%,23.139954%,40.388489%);fill-opacity:1;" d="M 609.691406 472.492188 C 598.636719 437.535156 586.558594 388.230469 575.367188 333.324219 C 553.09375 223.441406 540.539062 133.296875 538.90625 133.539062 C 537.507812 133.691406 547.632812 224.277344 569.953125 334.425781 C 581.167969 389.46875 593.910156 438.84375 605.980469 473.714844 C 617.738281 508.753906 629.699219 528.558594 630.351562 528.109375 C 631 527.761719 620.425781 507.605469 609.691406 472.492188 "/>
<path style=" stroke:none;fill-rule:nonzero;fill:rgb(77.648926%,13.729858%,24.308777%);fill-opacity:1;" d="M 618.4375 470.511719 C 607.550781 436.082031 595.652344 387.523438 584.628906 333.441406 C 562.6875 225.21875 550.324219 136.4375 548.71875 136.671875 C 547.347656 136.824219 557.308594 226.042969 579.296875 334.535156 C 590.34375 388.742188 602.886719 437.375 614.777344 471.722656 C 626.363281 506.230469 638.136719 525.734375 638.78125 525.304688 C 639.429688 524.953125 629.007812 505.101562 618.4375 470.511719 "/>
<path style=" stroke:none;fill-rule:nonzero;fill:rgb(96.078491%,71.759033%,60.778809%);fill-opacity:1;" d="M 459.820312 375.054688 C 414.976562 288.03125 377.527344 218.050781 376.164062 218.742188 C 374.8125 219.441406 410.070312 290.558594 454.90625 377.585938 C 499.75 464.617188 537.195312 534.597656 538.550781 533.898438 C 539.902344 533.195312 504.652344 462.078125 459.820312 375.054688 "/>
</g>
</svg>
