<?xml version="1.0" encoding="UTF-8"?>
<svg xmlns="http://www.w3.org/2000/svg" xmlns:xlink="http://www.w3.org/1999/xlink" width="375pt" height="374.999991pt" viewBox="0 0 375 374.999991" version="1.2">
<defs>
<clipPath id="clip1">
  <path d="M 19 289 L 283 289 L 283 337.863281 L 19 337.863281 Z M 19 289 "/>
</clipPath>
<clipPath id="clip2">
  <path d="M 278 114 L 365 114 L 365 337.863281 L 278 337.863281 Z M 278 114 "/>
</clipPath>
<clipPath id="clip3">
  <path d="M 0.414062 66 L 362.984375 66 L 362.984375 197.714844 L 0.414062 197.714844 Z M 0.414062 66 "/>
</clipPath>
<clipPath id="clip4">
  <path d="M 33 26.714844 L 255 26.714844 L 255 197.714844 L 33 197.714844 Z M 33 26.714844 "/>
</clipPath>
</defs>
<g id="surface1">
<g clip-path="url(#clip1)" clip-rule="nonzero">
<path style=" stroke:none;fill-rule:nonzero;fill:rgb(99.21875%,82.348633%,54.119873%);fill-opacity:1;" d="M 26.332031 337.351562 C 15.921875 321.609375 17.445312 300.917969 25.632812 289.609375 C 107.660156 290.09375 190.078125 289.125 272.109375 289.609375 C 273.757812 289.625 275.484375 289.65625 276.917969 290.46875 C 278.800781 291.546875 279.71875 293.734375 280.417969 295.796875 C 282.78125 302.730469 284.804688 329.167969 276.933594 333.835938 C 275.609375 334.617188 273.992188 334.710938 272.4375 334.757812 C 204.660156 337.273438 136.820312 337.867188 69.011719 337.226562 Z M 26.332031 337.351562 "/>
</g>
<path style="fill:none;stroke-width:0.835;stroke-linecap:round;stroke-linejoin:round;stroke:rgb(21.179199%,37.249756%,62.748718%);stroke-opacity:1;stroke-miterlimit:10;" d="M 121.341231 281.649642 C 118.569611 272.009342 118.519401 261.60112 121.200642 251.930803 " transform="matrix(1.555949,0,0,1.561641,-142.722687,-105.577807)"/>
<path style="fill:none;stroke-width:0.835;stroke-linecap:round;stroke-linejoin:round;stroke:rgb(21.179199%,37.249756%,62.748718%);stroke-opacity:1;stroke-miterlimit:10;" d="M 238.620413 281.739691 C 240.739296 271.759204 240.829675 263.899884 238.939249 253.869369 " transform="matrix(1.555949,0,0,1.561641,-142.722687,-105.577807)"/>
<path style="fill:none;stroke-width:0.835;stroke-linecap:round;stroke-linejoin:round;stroke:rgb(21.179199%,37.249756%,62.748718%);stroke-opacity:1;stroke-miterlimit:10;" d="M 231.088837 281.099339 C 232.851226 273.360085 232.8211 263.689768 230.990927 255.960519 " transform="matrix(1.555949,0,0,1.561641,-142.722687,-105.577807)"/>
<path style="fill:none;stroke-width:0.835;stroke-linecap:round;stroke-linejoin:round;stroke:rgb(21.179199%,37.249756%,62.748718%);stroke-opacity:1;stroke-miterlimit:10;" d="M 131.769952 271.739193 C 134.370856 270.501013 136.479698 268.289797 137.609434 265.640841 C 136.439529 267.479351 137.230345 270.591062 139.399438 270.791172 C 140.870606 270.928748 142.120848 269.710578 142.818774 268.419869 C 143.51921 267.129159 143.910852 265.650846 144.849788 264.510219 C 144.33011 266.011044 144.279899 267.669456 144.699157 269.210303 C 144.799578 269.570501 144.940167 269.95071 145.248962 270.15082 C 145.640604 270.410963 146.15024 270.310908 146.589582 270.190842 C 149.921049 269.250325 152.830748 266.919043 154.480163 263.879873 C 154.080989 265.470747 154.091031 267.169181 154.510289 268.75005 C 154.640836 269.260331 154.879336 269.830644 155.388973 270.000738 C 155.810741 270.140815 156.260125 269.960716 156.649256 269.7506 C 158.881113 268.579957 160.708776 266.648895 161.760686 264.360137 C 161.569886 265.550791 161.389128 266.788972 161.740601 267.939604 C 162.089564 269.090237 163.159048 270.120804 164.359079 270.020749 C 164.959095 269.970721 165.498858 269.650545 166.011005 269.310358 C 167.929046 268.029654 169.62114 266.408763 170.979334 264.560247 C 171.190218 265.590813 170.801087 266.648895 170.740834 267.699472 C 170.680581 268.75005 171.20026 270.030754 172.24966 270.130809 C 172.859717 270.190842 173.429606 269.810633 173.909117 269.44043 C 175.581127 268.159726 177.099994 266.688917 178.440615 265.070527 C 178.139352 265.900984 177.850641 266.768961 177.981189 267.649445 C 178.109225 268.519924 178.819704 269.370391 179.700898 269.360386 C 180.310956 269.35038 180.840677 268.95016 181.310145 268.559946 C 182.560386 267.519373 183.740333 266.398757 184.839943 265.22061 C 183.77046 266.151121 184.019002 268.059671 185.148738 268.910138 C 186.291027 269.7506 187.970568 269.590512 189.110346 268.760056 C 190.260167 267.929599 190.920435 266.568851 191.199103 265.180588 " transform="matrix(1.555949,0,0,1.561641,-142.722687,-105.577807)"/>
<path style=" stroke:none;fill-rule:nonzero;fill:rgb(84.309387%,78.42865%,70.979309%);fill-opacity:1;" d="M 45.8125 289.40625 C 41.332031 282.941406 41.6875 269.089844 45.234375 262.640625 C 113.792969 262.921875 181.894531 258.816406 250.449219 259.097656 C 251.835938 259.097656 253.28125 259.113281 254.480469 259.582031 C 256.050781 260.191406 256.8125 261.40625 257.40625 262.5625 C 259.382812 266.453125 260.78125 286.597656 254.199219 289.21875 C 253.09375 289.65625 251.742188 289.703125 250.449219 289.734375 C 193.8125 291.140625 138.171875 289.703125 81.503906 289.34375 Z M 45.8125 289.40625 "/>
<path style="fill:none;stroke-width:0.835;stroke-linecap:round;stroke-linejoin:round;stroke:rgb(21.179199%,37.249756%,62.748718%);stroke-opacity:1;stroke-miterlimit:10;" d="M 142.070637 248.879125 C 145.798767 249.209307 150.390517 249.499466 153.541226 247.480857 C 155.331231 246.330224 156.900309 244.35914 155.549646 242.360542 C 153.870105 239.859166 150.199717 239.869172 147.531029 239.719089 C 142.469811 239.438935 136.278856 239.378902 131.960752 242.420575 C 126.369813 246.330224 139.590238 248.659004 142.070637 248.879125 Z M 142.070637 248.879125 " transform="matrix(1.555949,0,0,1.561641,-142.722687,-105.577807)"/>
<path style="fill:none;stroke-width:0.835;stroke-linecap:round;stroke-linejoin:round;stroke:rgb(21.179199%,37.249756%,62.748718%);stroke-opacity:1;stroke-miterlimit:10;" d="M 161.090375 249.169285 C 160.758986 246.090092 160.420065 243.000894 160.091186 239.919199 " transform="matrix(1.555949,0,0,1.561641,-142.722687,-105.577807)"/>
<path style="fill:none;stroke-width:0.835;stroke-linecap:round;stroke-linejoin:round;stroke:rgb(21.179199%,37.249756%,62.748718%);stroke-opacity:1;stroke-miterlimit:10;" d="M 164.489626 249.75961 C 164.0302 246.110103 163.779148 242.440586 163.759064 238.761063 " transform="matrix(1.555949,0,0,1.561641,-142.722687,-105.577807)"/>
<path style="fill:none;stroke-width:0.835;stroke-linecap:round;stroke-linejoin:round;stroke:rgb(21.179199%,37.249756%,62.748718%);stroke-opacity:1;stroke-miterlimit:10;" d="M 240.058944 248.97918 C 240.119196 245.960021 240.011244 242.930855 239.709981 239.919199 " transform="matrix(1.555949,0,0,1.561641,-142.722687,-105.577807)"/>
<path style="fill:none;stroke-width:0.835;stroke-linecap:round;stroke-linejoin:round;stroke:rgb(21.179199%,37.249756%,62.748718%);stroke-opacity:1;stroke-miterlimit:10;" d="M 243.940215 248.789076 C 243.739373 245.04952 243.440621 241.309964 243.018853 237.580414 " transform="matrix(1.555949,0,0,1.561641,-142.722687,-105.577807)"/>
<path style=" stroke:none;fill-rule:nonzero;fill:rgb(93.728638%,49.409485%,41.958618%);fill-opacity:1;" d="M 18.488281 262.4375 C 8.671875 242.933594 10.101562 217.339844 17.835938 203.332031 C 95.136719 203.9375 172.792969 202.722656 250.09375 203.332031 C 251.648438 203.347656 253.28125 203.378906 254.636719 204.40625 C 256.410156 205.75 257.28125 208.4375 257.933594 211 C 260.160156 219.585938 262.074219 252.320312 254.652344 258.097656 C 253.390625 259.082031 251.882812 259.175781 250.417969 259.238281 C 186.5625 262.359375 122.628906 263.078125 58.742188 262.28125 Z M 18.488281 262.4375 "/>
<path style="fill:none;stroke-width:0.835;stroke-linecap:round;stroke-linejoin:round;stroke:rgb(21.179199%,37.249756%,62.748718%);stroke-opacity:1;stroke-miterlimit:10;" d="M 115.619744 226.409272 C 121.891036 226.359244 128.149775 226.329228 134.421067 226.329228 C 133.969172 219.830655 133.519788 213.329581 133.070404 206.821003 C 133.05032 206.570865 133.030236 206.300717 132.869562 206.100607 C 132.661189 205.830458 132.279589 205.780431 131.940668 205.740409 C 126.030892 205.190106 120.090989 205.060035 114.171171 205.370205 C 114.731018 210.300416 115.639828 215.210615 115.639828 220.170842 Z M 115.619744 226.409272 " transform="matrix(1.555949,0,0,1.561641,-142.722687,-105.577807)"/>
<path style="fill:none;stroke-width:0.835;stroke-linecap:round;stroke-linejoin:round;stroke:rgb(21.179199%,37.249756%,62.748718%);stroke-opacity:1;stroke-miterlimit:10;" d="M 142.140932 216.041072 C 142.339263 217.629445 143.991189 218.880133 145.570309 218.650006 C 147.149429 218.41988 148.379587 216.748961 148.121003 215.170593 C 148.959518 216.648906 150.189675 218.069687 151.859175 218.369852 C 153.531184 218.670017 155.499436 217.249236 155.170557 215.590824 C 156.209915 216.869027 157.728782 217.979638 159.370666 217.799539 C 161.010039 217.619439 162.370743 215.580819 161.39917 214.240082 C 162.410912 215.720896 163.55069 217.309269 165.2704 217.789533 C 166.99011 218.279803 169.249582 216.849016 168.81024 215.120566 C 169.799387 216.72895 171.34085 217.999649 173.120812 218.640001 C 173.750954 217.249236 174.120001 215.740907 174.21038 214.210065 C 175.960216 215.630846 177.049784 218.609984 179.269088 218.21977 C 180.388782 218.01966 181.169555 216.879032 181.269976 215.740907 C 181.370397 214.60028 180.931056 213.489669 180.388782 212.479113 " transform="matrix(1.555949,0,0,1.561641,-142.722687,-105.577807)"/>
<path style="fill:none;stroke-width:0.835;stroke-linecap:round;stroke-linejoin:round;stroke:rgb(21.179199%,37.249756%,62.748718%);stroke-opacity:1;stroke-miterlimit:10;" d="M 214.069987 225.858969 C 214.499287 219.870677 214.589666 213.849867 214.331082 207.849068 " transform="matrix(1.555949,0,0,1.561641,-142.722687,-105.577807)"/>
<path style="fill:none;stroke-width:0.835;stroke-linecap:round;stroke-linejoin:round;stroke:rgb(21.179199%,37.249756%,62.748718%);stroke-opacity:1;stroke-miterlimit:10;" d="M 220.988995 225.211113 C 220.62999 219.210314 220.260942 213.209515 219.899427 207.221223 " transform="matrix(1.555949,0,0,1.561641,-142.722687,-105.577807)"/>
<path style="fill:none;stroke-width:0.835;stroke-linecap:round;stroke-linejoin:round;stroke:rgb(21.179199%,37.249756%,62.748718%);stroke-opacity:1;stroke-miterlimit:10;" d="M 226.070297 225.331179 C 226.160676 219.33038 226.251055 212.799289 226.348966 206.800992 C 233.30061 206.800992 240.960222 208.139227 248.290955 207.839062 C 249.400608 210.330432 249.900202 213.489669 249.880118 216.071088 C 249.860034 219.140276 249.400608 221.699182 248.150366 224.790882 C 242.539342 224.700833 236.910745 224.790882 231.319806 225.341185 L 226.070297 225.341185 Z M 226.070297 225.331179 " transform="matrix(1.555949,0,0,1.561641,-142.722687,-105.577807)"/>
<path style=" stroke:none;fill-rule:nonzero;fill:rgb(59.609985%,83.139038%,88.238525%);fill-opacity:1;" d="M 57.417969 203.269531 C 48.363281 188.636719 49.671875 167.257812 57.246094 157.027344 C 130.921875 158.996094 204.953125 159.605469 278.628906 161.570312 C 280.105469 161.617188 281.664062 161.664062 282.9375 162.445312 C 284.601562 163.476562 285.398438 165.492188 285.988281 167.398438 C 287.980469 173.800781 289.300781 198.097656 282.144531 202.238281 C 280.929688 202.941406 279.484375 202.972656 278.097656 203.003906 C 217.183594 204.0625 159.457031 205.0625 98.574219 203.238281 Z M 57.417969 203.269531 "/>
<path style="fill-rule:nonzero;fill:rgb(59.609985%,83.139038%,88.238525%);fill-opacity:1;stroke-width:0.835;stroke-linecap:round;stroke-linejoin:round;stroke:rgb(21.179199%,37.249756%,62.748718%);stroke-opacity:1;stroke-miterlimit:10;" d="M 270.44885 197.600934 C 246.189646 198.021165 222.721257 198.428889 199.059558 198.398872 C 184.541191 198.378861 169.950019 198.198762 155.070136 197.751016 " transform="matrix(1.555949,0,0,1.561641,-142.722687,-105.577807)"/>
<path style="fill:none;stroke-width:0.835;stroke-linecap:round;stroke-linejoin:round;stroke:rgb(21.179199%,37.249756%,62.748718%);stroke-opacity:1;stroke-miterlimit:10;" d="M 128.518822 168.159748 C 156.069325 168.890149 183.690123 169.330391 211.31092 169.820661 C 220.100269 169.970743 228.879575 170.130831 237.658882 170.31093 C 248.710213 170.531051 259.759034 170.781189 270.800324 171.068847 C 271.749302 171.098863 272.751002 171.12888 273.569433 171.629155 C 274.638917 172.289518 275.151064 173.580228 275.530153 174.800899 " transform="matrix(1.555949,0,0,1.561641,-142.722687,-105.577807)"/>
<path style="fill:none;stroke-width:0.835;stroke-linecap:round;stroke-linejoin:round;stroke:rgb(21.179199%,37.249756%,62.748718%);stroke-opacity:1;stroke-miterlimit:10;" d="M 171.381018 190.939772 C 171.119923 185.889495 170.868871 180.829213 170.610287 175.778936 " transform="matrix(1.555949,0,0,1.561641,-142.722687,-105.577807)"/>
<path style="fill:none;stroke-width:0.835;stroke-linecap:round;stroke-linejoin:round;stroke:rgb(21.179199%,37.249756%,62.748718%);stroke-opacity:1;stroke-miterlimit:10;" d="M 175.018769 191.980344 C 174.649722 185.999556 174.509132 179.981247 174.599511 173.970442 " transform="matrix(1.555949,0,0,1.561641,-142.722687,-105.577807)"/>
<path style="fill:none;stroke-width:0.835;stroke-linecap:round;stroke-linejoin:round;stroke:rgb(21.179199%,37.249756%,62.748718%);stroke-opacity:1;stroke-miterlimit:10;" d="M 256.259362 192.370558 C 256.430078 187.420337 256.399952 182.470115 256.189068 177.529899 " transform="matrix(1.555949,0,0,1.561641,-142.722687,-105.577807)"/>
<path style="fill:none;stroke-width:0.835;stroke-linecap:round;stroke-linejoin:round;stroke:rgb(21.179199%,37.249756%,62.748718%);stroke-opacity:1;stroke-miterlimit:10;" d="M 260.429344 192.140432 C 260.338966 186.009561 260.140634 179.891197 259.819287 173.780338 " transform="matrix(1.555949,0,0,1.561641,-142.722687,-105.577807)"/>
<path style="fill-rule:nonzero;fill:rgb(84.309387%,78.42865%,70.979309%);fill-opacity:1;stroke-width:0.835;stroke-linecap:round;stroke-linejoin:round;stroke:rgb(21.179199%,37.249756%,62.748718%);stroke-opacity:1;stroke-miterlimit:10;" d="M 181.028966 192.970888 C 180.978756 187.040128 181.460776 180.438998 181.410566 174.510739 C 190.940519 174.82091 208.099959 175.111069 218.069254 175.321185 C 218.659227 181.36951 218.039128 186.88004 217.690165 193.728805 C 208.830521 193.551207 198.898884 193.351097 186.579737 193.090954 Z M 181.028966 192.970888 " transform="matrix(1.555949,0,0,1.561641,-142.722687,-105.577807)"/>
<path style="fill:none;stroke-width:0.835;stroke-linecap:round;stroke-linejoin:round;stroke:rgb(21.179199%,37.249756%,62.748718%);stroke-opacity:1;stroke-miterlimit:10;" d="M 163.098796 191.460058 C 160.859407 189.979243 158.250972 189.001206 155.539604 188.620997 C 157.111193 188.901151 158.750566 188.811101 160.269434 188.370859 C 160.72886 188.230782 161.251049 188.000656 161.328875 187.550408 C 161.39917 187.180205 161.140586 186.830012 160.869449 186.559864 C 159.400792 185.029022 157.23923 184.111017 155.04001 184.06099 C 156.830014 184.251094 158.660187 184.081001 160.379897 183.580726 C 161.251049 183.320583 162.220112 182.790291 162.21007 181.939824 C 162.189985 181.149389 161.328875 180.649114 160.550613 180.328938 C 159.159782 179.761126 157.711209 179.330889 156.229999 179.030724 C 158.180677 179.55101 160.49036 179.998756 162.039354 178.790592 C 162.93059 178.090207 162.300449 176.789492 161.710475 176.099112 C 160.91966 175.171102 159.589081 174.680833 158.368966 174.480723 " transform="matrix(1.555949,0,0,1.561641,-142.722687,-105.577807)"/>
<g clip-path="url(#clip2)" clip-rule="nonzero">
<path style=" stroke:none;fill-rule:nonzero;fill:rgb(93.728638%,49.409485%,41.958618%);fill-opacity:1;" d="M 278.691406 123.546875 C 277.757812 125.140625 277.929688 132.683594 279.0625 138.445312 C 281.785156 152.25 283.683594 169.457031 286.144531 183.371094 C 295.371094 235.59375 301.890625 279.914062 312.609375 331.898438 C 313.015625 333.851562 313.542969 335.976562 315.160156 337.132812 C 316.59375 338.148438 318.492188 338.085938 320.25 338.023438 C 333.988281 337.585938 362.152344 333.023438 364.253906 327.417969 C 367.332031 323.5625 346.296875 232.285156 344.429688 222.914062 C 340.648438 204 338.035156 187.902344 334.535156 168.925781 C 332.402344 157.308594 328.964844 139.710938 326.148438 128.074219 C 322.351562 112.316406 317.261719 112.066406 286.515625 119.71875 C 282.394531 120.75 279.40625 122.328125 278.691406 123.546875 Z M 278.691406 123.546875 "/>
</g>
<path style="fill:none;stroke-width:0.624;stroke-linecap:round;stroke-linejoin:round;stroke:rgb(21.179199%,37.249756%,62.748718%);stroke-opacity:1;stroke-miterlimit:10;" d="M 273.930949 167.439352 C 282.800634 164.18006 292.049409 161.918816 301.431241 160.720658 " transform="matrix(1.555949,0,0,1.561641,-142.722687,-105.577807)"/>
<path style="fill:none;stroke-width:0.624;stroke-linecap:round;stroke-linejoin:round;stroke:rgb(21.179199%,37.249756%,62.748718%);stroke-opacity:1;stroke-miterlimit:10;" d="M 277.500915 187.810551 C 287.128779 185.629352 296.749112 183.440649 306.379486 181.25945 " transform="matrix(1.555949,0,0,1.561641,-142.722687,-105.577807)"/>
<path style=" stroke:none;fill-rule:nonzero;fill:rgb(99.21875%,82.348633%,54.119873%);fill-opacity:1;" d="M 299.308594 202.707031 C 302 218.335938 305.78125 238.671875 308.8125 253.675781 C 308.890625 254.097656 309.03125 254.550781 309.390625 254.800781 C 309.761719 255.066406 310.277344 255.035156 310.726562 254.972656 C 320.609375 253.738281 330.097656 250.914062 339.980469 249.679688 C 335.40625 231.066406 334.472656 216.027344 329.898438 197.394531 C 313.125 200.300781 299.308594 202.707031 299.308594 202.707031 Z M 299.308594 202.707031 "/>
<path style="fill:none;stroke-width:0.624;stroke-linecap:round;stroke-linejoin:round;stroke:rgb(21.179199%,37.249756%,62.748718%);stroke-opacity:1;stroke-miterlimit:10;" d="M 289.840146 262.008844 C 299.678894 260.150322 309.520153 258.299304 319.358901 256.440783 " transform="matrix(1.555949,0,0,1.561641,-142.722687,-105.577807)"/>
<path style="fill:none;stroke-width:0.624;stroke-linecap:round;stroke-linejoin:round;stroke:rgb(21.179199%,37.249756%,62.748718%);stroke-opacity:1;stroke-miterlimit:10;" d="M 290.738914 239.041217 C 291.559856 238.220766 292.089577 237.120161 292.210082 235.969528 C 292.260293 236.519831 292.310503 237.090144 292.609256 237.550397 C 292.910519 238.01065 293.550703 238.30081 294.030213 238.040667 C 294.298839 237.890584 294.469555 237.600425 294.620186 237.330276 C 295.009318 236.589869 295.340707 235.829451 295.609333 235.039016 C 295.800133 235.709385 296.041144 236.449792 296.621075 236.830001 C 297.298917 237.280249 298.260448 237.090144 298.870505 236.549847 C 299.480563 236.00955 299.7994 235.20911 299.970115 234.421177 C 299.759231 235.309165 300.550047 236.229671 301.458857 236.359743 C 302.370177 236.489814 303.268945 235.999545 303.879003 235.309165 C 304.479018 234.618785 304.840534 233.750808 305.179455 232.900341 C 305.089076 233.620737 305.310002 234.401166 305.829681 234.898939 C 306.359402 235.399214 307.200428 235.589319 307.850654 235.259137 C 308.269911 235.049022 308.571174 234.658807 308.859885 234.291105 C 309.560321 233.380605 310.280842 232.430082 310.469131 231.29946 " transform="matrix(1.555949,0,0,1.561641,-142.722687,-105.577807)"/>
<g clip-path="url(#clip3)" clip-rule="nonzero">
<path style=" stroke:none;fill-rule:nonzero;fill:rgb(96.859741%,69.018555%,85.879517%);fill-opacity:1;" d="M 188.460938 76.136719 C 212.363281 78.582031 233.816406 88.726562 256.667969 94.574219 C 284.351562 101.652344 311.074219 109.765625 340.335938 109.269531 C 344.269531 109.175781 360.675781 107.675781 362.988281 107.183594 C 331.667969 102.304688 300.660156 97.105469 270.125 89.601562 C 241.449219 82.550781 213.070312 71.472656 183.394531 67.707031 C 162.808594 65.03125 144.078125 67.003906 122.296875 73.289062 C 76.078125 86.625 33.636719 104.078125 0.414062 136.929688 C 52.070312 101.835938 118.164062 68.953125 188.460938 76.136719 Z M 226.863281 144.257812 C 193.382812 132.320312 105.902344 144.269531 63.78125 197.917969 C 63.78125 197.917969 148.449219 129.136719 234.566406 154.128906 C 309.46875 175.871094 354.277344 165.675781 354.277344 165.675781 L 341.449219 162.878906 C 341.449219 162.878906 269.8125 159.566406 226.863281 144.257812 Z M 55.570312 164.125 C 97.6875 110.476562 190.800781 101.972656 224.621094 112.914062 C 270.203125 127.660156 329.984375 128.980469 329.984375 128.980469 L 346.0625 131.878906 C 346.0625 131.878906 314.253906 141.4375 226.351562 120.335938 C 139.175781 99.40625 55.570312 164.125 55.570312 164.125 "/>
</g>
<path style=" stroke:none;fill-rule:nonzero;fill:rgb(97.24884%,60.389709%,18.03894%);fill-opacity:1;" d="M 162.050781 77.242188 C 162.050781 77.242188 160.40625 90.214844 153.253906 93.023438 C 153.253906 93.023438 161.539062 96.992188 162.136719 105.40625 C 162.179688 105.957031 164.957031 94.070312 171.710938 92.269531 C 171.710938 92.269531 163.03125 89.179688 162.050781 77.242188 Z M 258.71875 100.613281 C 258.640625 99.5 253.007812 123.554688 239.339844 127.203125 C 239.339844 127.203125 256.90625 133.460938 258.890625 157.621094 C 258.890625 157.621094 262.179688 133.113281 274.46875 129.636719 C 274.46875 129.636719 259.933594 117.644531 258.71875 100.613281 Z M 200.789062 157.621094 L 208.089844 151.058594 L 219.597656 47.066406 L 215.390625 37.460938 Z M 118.058594 48.832031 L 126.320312 102.070312 L 134.578125 99.363281 L 124.128906 46.449219 Z M 44.875 66.496094 L 49.890625 136.960938 L 54.097656 132.507812 L 52.234375 66.574219 Z M 80.441406 109.074219 C 78.691406 107.824219 75.515625 107.089844 73.550781 108.199219 C 72.929688 108.234375 72.335938 108.464844 71.828125 108.972656 C 69.230469 111.59375 69.339844 115.664062 72.035156 118.164062 C 75.027344 120.933594 79.753906 121.15625 82.59375 118.089844 C 85.296875 115.171875 83.195312 111.03125 80.441406 109.074219 Z M 321.902344 156.921875 C 319.0625 159.984375 314.339844 159.769531 311.347656 156.996094 C 308.652344 154.5 308.542969 150.425781 311.140625 147.804688 C 311.644531 147.292969 312.238281 147.070312 312.859375 147.03125 C 314.824219 145.921875 318.003906 146.660156 319.753906 147.90625 C 322.503906 149.863281 324.605469 154.007812 321.902344 156.921875 "/>
<g clip-path="url(#clip4)" clip-rule="nonzero">
<path style=" stroke:none;fill-rule:nonzero;fill:rgb(81.17981%,6.669617%,39.219666%);fill-opacity:1;" d="M 153.703125 176.1875 C 150.082031 175.660156 146.351562 177.351562 143.890625 180.074219 C 141.425781 182.789062 140.125 186.414062 139.664062 190.0625 C 139.472656 191.574219 139.421875 193.140625 139.898438 194.589844 C 140.371094 196.035156 141.453125 197.351562 142.910156 197.765625 C 143.886719 198.046875 144.941406 197.90625 145.917969 197.609375 C 148.636719 196.785156 150.90625 194.808594 152.550781 192.476562 C 154.191406 190.144531 155.269531 187.46875 156.230469 184.78125 C 156.800781 183.183594 157.339844 181.484375 157.003906 179.824219 C 156.667969 178.164062 155.363281 175.886719 153.703125 176.1875 Z M 252.871094 35.878906 C 250.972656 32.730469 247.71875 30.402344 244.15625 28.886719 C 236.042969 25.441406 225.996094 26.148438 218.554688 30.6875 C 216.277344 32.078125 214.113281 33.992188 213.65625 36.464844 C 214.058594 38.695312 214.867188 39.625 216.226562 41.515625 C 219.09375 45.5 223.605469 48.355469 228.519531 49.9375 C 233.433594 51.523438 238.734375 51.898438 243.933594 51.605469 C 247.207031 51.421875 250.808594 50.808594 252.804688 48.425781 C 253.574219 47.5 254.03125 46.386719 254.3125 45.257812 C 255.101562 42.109375 254.578125 38.703125 252.871094 35.878906 Z M 139.316406 91.640625 C 137.542969 89.554688 134.902344 88.785156 132.300781 89.027344 C 132.101562 88.945312 131.878906 88.878906 131.621094 88.863281 C 125.769531 88.464844 121.351562 92.046875 117.726562 96.257812 C 114.535156 99.960938 111.941406 104.140625 109.976562 108.625 C 107.992188 113.164062 106.738281 118.027344 106.207031 122.953125 C 105.742188 127.257812 105.167969 133.332031 107.984375 136.972656 C 111.011719 140.890625 116.863281 139.96875 120.863281 138.34375 C 125.054688 136.636719 128.9375 133.59375 131.964844 130.253906 C 137.972656 123.640625 141.59375 115.136719 142.28125 106.203125 C 142.652344 101.433594 142.574219 95.46875 139.316406 91.640625 Z M 64.824219 130.601562 C 65.4375 133.621094 64.457031 136.714844 63.417969 139.617188 C 61.667969 144.5 59.710938 149.371094 56.726562 153.609375 C 53.734375 157.847656 49.613281 161.441406 44.667969 162.941406 C 42.894531 163.476562 40.976562 163.734375 39.199219 163.226562 C 36.550781 162.46875 34.582031 160.074219 33.722656 157.445312 C 32.859375 154.816406 32.953125 151.964844 33.300781 149.21875 C 34.136719 142.589844 36.503906 135.996094 40.980469 131.054688 C 45.457031 126.113281 52.238281 123.039062 58.824219 123.996094 C 61.839844 123.445312 64.210938 127.585938 64.824219 130.601562 "/>
</g>
<path style=" stroke:none;fill-rule:nonzero;fill:rgb(45.489502%,81.568909%,78.819275%);fill-opacity:1;" d="M 148.351562 133.085938 C 149.21875 134.769531 150.875 163.847656 151.0625 176.183594 C 151.9375 176.0625 152.824219 176.0625 153.703125 176.1875 C 155.363281 175.886719 156.667969 178.164062 157.003906 179.824219 L 153.816406 137.625 C 165.410156 137.414062 176.375 133.085938 176.375 133.085938 L 178.601562 145.511719 L 182.507812 145.066406 L 183.226562 126.410156 C 173.636719 127.464844 147.253906 130.957031 148.351562 133.085938 Z M 120.925781 27.324219 L 126.320312 42.859375 C 126.320312 42.859375 124.128906 63.285156 40.054688 70 L 42.273438 62.039062 C 42.273438 62.039062 93.527344 56.429688 120.925781 27.324219 "/>
</g>
</svg>
